HIERARCHY
ROOT root
{
	OFFSET	0	13.1	24.9
	CHANNELS 6  Xposition Yposition Zposition Xrotation Yrotation Zrotation
	JOINT spine_1
	{
		OFFSET	0	9.99999	0
		CHANNELS 3  Xrotation Yrotation Zrotation
		JOINT spine_2
		{
			OFFSET	0	112	-10
			CHANNELS 3  Xrotation Yrotation Zrotation
			JOINT spine_3
			{
				OFFSET	0	206.5	19.3
				CHANNELS 3  Xrotation Yrotation Zrotation
				JOINT spine_4
				{
					OFFSET	0	110.4	14.6
					CHANNELS 3  Xrotation Yrotation Zrotation
					JOINT neck_1
					{
						OFFSET	0	71.8	-50.3
						CHANNELS 3  Xrotation Yrotation Zrotation
						JOINT neck_2
						{
							OFFSET	0	86.2	-25.8
							CHANNELS 3  Xrotation Yrotation Zrotation
							JOINT head_ee
							{
								OFFSET	0	179.8	-8.7
								CHANNELS 3  Xrotation Yrotation Zrotation
								End Site
								{
									OFFSET	1	0	0
								}
							}
						}
					}
					JOINT left_clavicle
					{
						OFFSET	-43.2	22.4	-70.8
						CHANNELS 3  Xrotation Yrotation Zrotation
						JOINT left_shoulder
						{
							OFFSET	-93.9	-5.79999	48.7
							CHANNELS 3  Xrotation Yrotation Zrotation
							JOINT left_elbow
							{
								OFFSET	-291.4	-30.8	15.2
								CHANNELS 3  Xrotation Yrotation Zrotation
								JOINT left_lowarm_twist
								{
									OFFSET	-110.7	-3.89999	13.6
									CHANNELS 3  Xrotation Yrotation Zrotation
									JOINT left_hand
									{
										OFFSET	-110.7	-3.89999	13.6
										CHANNELS 3  Xrotation Yrotation Zrotation
										JOINT left_ee
										{
											OFFSET	-80.8	-5.10001	12.1
											CHANNELS 3  Xrotation Yrotation Zrotation
											End Site
											{
												OFFSET	1	0	0
											}
										}
									}
								}
							}
						}
					}
					JOINT right_clavicle
					{
						OFFSET	43.2	22.4	-70.8
						CHANNELS 3  Xrotation Yrotation Zrotation
						JOINT right_shoulder
						{
							OFFSET	93.9	-5.79999	48.7
							CHANNELS 3  Xrotation Yrotation Zrotation
							JOINT right_elbow
							{
								OFFSET	291.4	-30.8	15.2
								CHANNELS 3  Xrotation Yrotation Zrotation
								JOINT right_lowarm_twist
								{
									OFFSET	110.7	-3.89999	13.6
									CHANNELS 3  Xrotation Yrotation Zrotation
									JOINT right_hand
									{
										OFFSET	110.7	-3.89999	13.6
										CHANNELS 3  Xrotation Yrotation Zrotation
										JOINT right_ee
										{
											OFFSET	80.8	-5.10001	12.1
											CHANNELS 3  Xrotation Yrotation Zrotation
											End Site
											{
												OFFSET	1	0	0
											}
										}
									}
								}
							}
						}
					}
				}
			}
		}
	}
	JOINT left_hip
	{
		OFFSET	-82.8	-127.5	0.300001
		CHANNELS 3  Xrotation Yrotation Zrotation
		JOINT left_knee
		{
			OFFSET	-28.2	-396.7	2.2
			CHANNELS 3  Xrotation Yrotation Zrotation
			JOINT left_ankle
			{
				OFFSET	-11.7	-411.3	35.4
				CHANNELS 3  Xrotation Yrotation Zrotation
				JOINT left_toes
				{
					OFFSET	0	-60	-88.6
					CHANNELS 3  Xrotation Yrotation Zrotation
					JOINT left_foot_ee
					{
						OFFSET	-22.5	-16.5	-42.2
						CHANNELS 3  Xrotation Yrotation Zrotation
						End Site
						{
							OFFSET	1	0	0
						}
					}
				}
			}
		}
	}
	JOINT right_hip
	{
		OFFSET	82.8	-127.5	0.300001
		CHANNELS 3  Xrotation Yrotation Zrotation
		JOINT right_knee
		{
			OFFSET	28.2	-396.7	2.2
			CHANNELS 3  Xrotation Yrotation Zrotation
			JOINT right_ankle
			{
				OFFSET	11.7	-411.3	35.4
				CHANNELS 3  Xrotation Yrotation Zrotation
				JOINT right_toes
				{
					OFFSET	0	-60	-88.6
					CHANNELS 3  Xrotation Yrotation Zrotation
					JOINT right_foot_ee
					{
						OFFSET	22.5	-16.5	-42.2
						CHANNELS 3  Xrotation Yrotation Zrotation
						End Site
						{
							OFFSET	1	0	0
						}
					}
				}
			}
		}
	}
}
MOTION
Frames: 13
Frame Time: 0.02
1792.33 605.902 -1624.28 21.6484 66.4521 -20.2577 -3.64344 -0.454264 -1.38891 -3.64244 -0.364973 -1.41499 -3.63153 0.0331449 -1.46092 -3.63445 -0.197971 -1.44782 -9.28649 21.4324 9.80327 -9.33671 33.7147 14.7425 -0.0 0.0 -0.0 3.97734 18.9305 8.19261 17.1888 -29.4727 70.39 6.16997 -71.8506 4.47252 -39.6608 -2.91516 4.03619 1.53987 15.7577 16.1527 -0.0 0.0 -0.0 11.2036 -9.02656 -21.2661 -10.3559 1.11833 -55.6075 0.212585 6.01173 -0.011163 -56.3231 4.82935 -4.97208 7.43279 -34.9159 -68.6948 0.0 0.0 0.0 -29.31 23.2148 6.16488 -16.9665 0.319419 2.57458 40.0594 -1.0413 -4.88949 -0.828076 0.0 0.0 -0.0 0.0 -0.0 33.119 33.3835 -16.6208 -3.97081 -0.143002 -0.592498 5.87021 -22.2611 0.871948 -24.2086 0.0 0.0 0.0 0.0 0.0 
1765.59 607.007 -1622.89 20.6925 67.6981 -19.6027 -3.7525 -0.375505 -1.3695 -3.7515 -0.287608 -1.39061 -3.74272 0.10375 -1.41624 -3.7455 -0.121199 -1.41486 -7.89618 21.0654 8.48017 -7.8435 33.5038 12.9781 -0.0 0.0 -0.0 4.92772 19.4399 9.62874 15.3277 -29.911 70.3674 6.32455 -72.2645 4.61959 -39.4337 -2.89114 4.01969 1.63018 16.0409 16.8293 -0.0 0.0 -0.0 11.1149 -9.94364 -20.9729 -9.58638 1.92282 -55.6793 0.247573 6.99203 -0.015125 -57.3883 4.95985 -5.01247 7.43678 -34.9757 -68.7302 0.0 0.0 0.0 -30.644 23.2016 6.71359 -14.2463 0.319797 2.15726 39.4358 -3.03451 -4.85633 0.443783 -0.0 -0.0 -0.0 0.0 -0.0 33.0533 33.611 -15.818 -6.33581 -0.208533 -0.949506 5.03039 -22.4417 0.749512 -24.5487 0.0 0.0 0.0 0.0 0.0 
1745.51 599.684 -1620.26 20.4459 69.4243 -19.4063 -3.72427 -0.359159 -1.50636 -3.72304 -0.262589 -1.52615 -3.71395 0.164134 -1.53985 -3.71725 -0.0810867 -1.54645 -5.69369 20.2549 6.10331 -5.47085 33.0438 9.86044 -0.0 0.0 -0.0 4.68126 17.9895 9.27655 14.097 -30.5214 70.7346 6.81142 -73.4554 5.08486 -38.6764 -2.81151 3.96398 1.5279 17.2406 16.5606 -0.0 0.0 -0.0 11.3721 -9.84064 -21.4807 -8.47026 2.27954 -54.3839 0.188467 5.33387 -0.00877889 -60.2085 5.30869 -5.10762 7.26751 -34.6544 -65.929 0.0 0.0 0.0 -31.6048 23.5803 6.95566 -12.6693 0.310945 1.91547 39.9961 -3.19462 -4.90672 1.21335 -0.0 -0.0 -0.0 0.0 -0.0 33.9013 33.6338 -15.4088 -9.43978 -0.272073 -1.42153 9.50311 -25.9302 1.4227 -26.8565 0.0 0.0 0.0 0.0 0.0 
1724.14 601.419 -1621.81 20.818 70.9367 -19.9609 -3.70415 -0.327708 -1.59253 -3.70277 -0.22572 -1.61015 -3.69416 0.222002 -1.61066 -3.69778 -0.035124 -1.62551 -4.61631 19.1741 5.25642 -4.31938 31.361 8.53821 -0.0 0.0 -0.0 5.01531 17.5848 9.80383 11.6925 -31.0544 70.737 6.61594 -72.9966 4.89769 -38.1346 -2.755 3.92349 1.55565 17.6884 16.8819 -0.0 0.0 -0.0 11.4867 -10.1891 -21.6512 -7.45425 2.63874 -54.7743 0.180771 5.11725 -0.008078 -60.7518 5.3764 -5.12397 7.21849 -34.4846 -65.2308 0.0 0.0 0.0 -33.4804 23.0026 7.14653 -9.90331 0.279363 1.49228 39.059 -4.88197 -4.84795 1.11757 -0.0 -0.0 -0.0 0.0 -0.0 34.1036 33.6393 -14.833 -13.2751 -0.315133 -2.00833 11.8247 -28.4584 1.78483 -28.7759 0.0 0.0 0.0 0.0 0.0 
1707.14 606.318 -1625.75 22.039 72.688 -20.9184 -3.77572 -0.310901 -1.72145 -3.77409 -0.200747 -1.73774 -3.76539 0.282999 -1.72626 -3.76955 0.00686091 -1.74928 -5.04871 17.2852 4.03203 -4.85285 28.8734 7.0923 -0.0 0.0 -0.0 5.74773 19.0412 10.8938 9.9417 -31.5123 70.4248 5.83088 -70.8737 4.1512 -38.0304 -2.74418 3.91564 1.13959 17.5317 14.1924 -0.0 0.0 -0.0 11.6475 -10.1045 -21.9735 -6.63059 3.68328 -55.1811 0.19275 5.45435 -0.00918153 -65.3183 5.95059 -5.23573 7.17451 -34.4771 -64.5505 0.0 0.0 0.0 -33.3364 21.8953 6.20034 -9.07241 0.265888 1.3655 37.8595 -6.17304 -4.76086 1.79817 -0.0 -0.0 -0.0 0.0 -0.0 35.4137 33.0076 -15.3208 -18.299 -0.312004 -2.77889 15.9616 -26.6439 2.34815 -33.4465 0.0 0.0 0.0 0.0 0.0 
1688.14 609.606 -1630.65 22.0195 73.3605 -20.6915 -3.75233 -0.225067 -1.81852 -3.7505 -0.108914 -1.82915 -3.74431 0.395757 -1.78915 -3.74876 0.108277 -1.82919 -5.78025 15.442 2.13666 -5.6829 26.9965 5.02186 -0.0 0.0 -0.0 6.03693 20.0192 11.2864 7.95813 -31.9582 69.8627 5.40805 -69.5033 3.75337 -37.4754 -2.68676 3.87351 1.42933 17.0481 15.8681 -0.0 0.0 -0.0 11.7296 -10.1593 -22.1239 -5.3298 5.09558 -55.579 0.231897 6.55329 -0.0132762 -65.1094 5.92415 -5.23162 7.0889 -34.4471 -63.2953 0.0 0.0 0.0 -34.3862 22.3502 6.11528 -5.88316 0.197133 0.880976 38.328 -6.86984 -4.81521 1.81562 -0.0 -0.0 -0.0 0.0 -0.0 35.0531 32.7726 -15.0091 -18.8156 -0.307852 -2.85805 15.5758 -28.4524 2.32116 -31.8899 0.0 0.0 0.0 0.0 0.0 
1659.89 616.902 -1633.38 22.9836 75.6222 -21.8896 -3.37234 -0.17312 -1.77557 -3.37059 -0.0598034 -1.78299 -3.3664 0.418945 -1.73412 -3.37057 0.139861 -1.7785 -6.38872 13.727 1.11329 -6.34984 24.6496 3.79686 -0.0 0.0 -0.0 6.2647 21.6498 11.5258 4.6267 -33.7433 69.6846 4.72621 -66.8485 3.12023 -37.8539 -2.72588 3.90231 1.34974 16.5612 15.1991 -0.0 0.0 -0.0 11.9214 -9.00952 -22.6699 -2.30696 6.78255 -55.8996 0.197757 5.59516 -0.00966356 -68.8707 6.40199 -5.29069 7.02075 -34.237 -62.4266 0.0 0.0 0.0 -34.4214 21.4311 5.02805 -5.21017 0.179183 0.779256 36.7166 -10.06 -4.73127 2.49778 -0.0 -0.0 -0.0 0.0 -0.0 35.2548 32.4996 -14.8973 -23.9392 -0.228115 -3.63993 16.8822 -28.325 2.50176 -34.4448 0.0 0.0 0.0 0.0 0.0 
1635.32 620.481 -1641.05 25.0622 76.5869 -24.0219 -3.19166 -0.169337 -1.80891 -3.18985 -0.0539073 -1.81602 -3.18581 0.427898 -1.76573 -3.19013 0.143713 -1.81113 -5.07931 12.5531 1.31101 -4.97931 22.1395 3.52145 -0.0 0.0 -0.0 5.96158 22.0488 11.0561 2.17931 -34.386 68.9997 4.21705 -64.4001 2.65635 -37.6649 -2.70632 3.88796 1.19447 15.8098 13.9545 -0.0 0.0 -0.0 11.7843 -7.82398 -22.5664 -1.94707 11.0616 -57.5518 0.207384 5.86568 -0.0106248 -72.8668 6.91225 -5.31877 7.03253 -34.0333 -62.6779 0.0 0.0 0.0 -32.5103 19.522 3.12948 -9.09528 0.266284 1.36898 34.5974 -12.0821 -4.5742 2.88594 -0.0 -0.0 -0.0 0.0 -0.0 34.9834 32.4823 -15.0131 -28.6736 -0.0925797 -4.35367 22.6856 -24.5737 3.20923 -35.8196 0.0 0.0 0.0 0.0 0.0 
1609.83 623.938 -1648.36 23.2308 78.1459 -22.2972 -3.11721 -0.0918899 -1.73091 -3.11554 0.018422 -1.73325 -3.11412 0.473716 -1.66738 -3.11794 0.204481 -1.72125 -4.1898 12.6489 1.39411 -4.0445 22.123 3.4645 -0.0 0.0 -0.0 5.60137 23.4838 10.457 -0.216355 -36.8901 68.3116 3.81933 -62.1246 2.30108 -38.0656 -2.74783 3.9183 1.11677 15.8312 13.4671 -0.0 0.0 -0.0 11.6219 -7.40498 -22.2988 -1.64701 13.083 -59.4721 0.195514 5.5321 -0.00944617 -77.3479 7.48452 -5.30759 6.48169 -32.7309 -56.3014 0.0 0.0 0.0 -29.2817 17.6252 0.912241 -12.8486 0.312287 1.94295 33.2326 -14.9817 -4.51474 3.43827 -0.0 -0.0 -0.0 0.0 -0.0 34.7562 32.2574 -15.2784 -31.3722 0.0109327 -4.75483 27.4627 -27.125 3.85907 -35.9786 0.0 0.0 0.0 0.0 0.0 
1586.82 620.106 -1653.68 24.4113 78.9859 -23.9035 -3.1057 -0.019018 -1.67143 -3.10415 0.0873632 -1.66926 -3.10498 0.523157 -1.58759 -3.1084 0.265899 -1.65026 -1.72829 11.8802 1.30762 -1.50218 20.4103 2.8694 -0.0 0.0 -0.0 4.85711 24.3874 9.38102 -1.85957 -37.6346 68.1935 3.78659 -61.9205 2.27217 -38.1836 -2.76009 3.92717 1.09993 15.9456 13.3997 -0.0 0.0 -0.0 11.598 -6.93625 -22.3107 -1.57707 15.2982 -60.2745 0.199902 5.65544 -0.00987372 -80.6663 7.9063 -5.27027 6.35421 -32.7948 -54.9129 0.0 0.0 0.0 -28.8507 16.6714 -0.158139 -15.9504 0.321878 2.41871 33.3847 -17.4946 -4.61092 4.46447 -0.0 -0.0 -0.0 0.0 -0.0 34.0837 32.492 -15.0948 -34.2464 0.141864 -5.17637 31.2255 -24.1065 4.22552 -37.7163 0.0 0.0 0.0 0.0 0.0 
1565.59 619.154 -1661.91 26.1216 79.7188 -25.1305 -3.02087 0.0519895 -1.68846 -3.0193 0.15931 -1.68173 -3.02238 0.593599 -1.58155 -3.02572 0.336409 -1.65543 -0.564614 12.0333 1.66592 -0.29828 20.2128 3.10009 -0.0 0.0 -0.0 4.06532 24.5843 8.29564 -3.50412 -38.1498 67.9245 3.56302 -60.4504 2.07627 -38.2678 -2.76886 3.9335 0.895516 16.5905 12.3328 -0.0 0.0 -0.0 11.5579 -6.52138 -22.2815 -1.92584 17.3988 -61.5306 0.203347 5.75227 -0.0102162 -83.3503 8.24509 -5.22211 6.10388 -32.5745 -52.4189 0.0 0.0 0.0 -27.2134 14.1537 -1.96603 -19.6582 0.299549 2.98705 32.932 -19.3422 -4.62927 4.59078 -0.0 -0.0 -0.0 0.0 -0.0 34.0526 31.9758 -16.5805 -36.7175 0.271251 -5.53326 36.4224 -25.6924 4.83197 -37.1065 0.0 0.0 0.0 0.0 0.0 
1544.52 620.386 -1669.98 25.3163 81.5309 -23.8953 -2.9073 0.355932 -1.77628 -2.90567 0.468223 -1.75005 -2.91889 0.906913 -1.56829 -2.92173 0.647886 -1.6918 0.00368708 11.6589 2.02549 0.259993 19.1532 3.37494 -0.0 0.0 -0.0 3.63452 25.7247 7.71047 -5.02528 -39.2211 67.9375 3.3154 -58.65 1.86278 -39.7211 -2.92155 4.04055 0.808213 16.234 11.6579 -0.0 0.0 -0.0 11.5822 -4.65377 -22.545 -0.433259 19.1275 -61.6063 0.199741 5.65094 -0.00985794 -85.2652 8.48507 -5.17799 5.96342 -32.492 -51.0859 0.0 0.0 0.0 -23.9252 10.2196 -4.28455 -25.5634 0.188274 3.886 32.6946 -19.8824 -4.62424 5.92878 -0.0 -0.0 -0.0 0.0 -0.0 33.3092 31.6373 -17.2056 -36.8466 0.278432 -5.55175 40.3244 -25.7411 5.22387 -38.7008 0.0 0.0 0.0 0.0 0.0 
1529.16 632.335 -1680.92 29.6674 83.3635 -27.7582 -2.65773 0.163359 -1.86006 -2.65585 0.281368 -1.84591 -2.66334 0.743709 -1.71277 -2.66714 0.463923 -1.80869 -0.495892 12.3801 1.69465 -0.210089 20.8017 3.15614 -0.0 0.0 -0.0 3.48898 24.2863 7.51343 -5.42329 -36.6145 68.7146 2.67388 -52.9391 1.33156 -41.4596 -3.10771 4.16351 0.449207 16.4662 9.49726 -0.0 0.0 -0.0 11.6623 -2.27654 -22.9484 0.514267 22.225 -61.6411 0.20344 5.75487 -0.0102254 -85.119 8.46681 -5.18164 5.57926 -31.6661 -47.7159 0.0 0.0 0.0 -18.7053 5.13648 -7.33068 -30.6393 0.0190473 4.64637 27.4666 -20.593 -4.05024 4.75106 -0.0 -0.0 -0.0 0.0 -0.0 29.9546 28.1052 -15.7342 -33.3504 0.0987763 -5.04566 41.9545 -26.5695 5.40786 -38.3629 0.0 0.0 0.0 0.0 0.0 
